<svg width="56" height="26" viewBox="0 0 56 26" fill="none" xmlns="http://www.w3.org/2000/svg">
<path d="M0.7 25L6.676 0.0519993H22.984L21.832 4.66H11.14L9.988 9.7H19.42L18.304 14.236H8.872L7.432 20.356H18.952L17.8 25H0.7ZM27.479 25C27.4497 24.428 27.413 23.8707 27.369 23.328C27.3397 22.7707 27.303 22.2207 27.259 21.678H21.539C21.2457 22.2207 20.9377 22.7707 20.615 23.328C20.2923 23.8707 19.9843 24.428 19.691 25H16.105C17.0583 23.3573 17.9457 21.8393 18.767 20.446C19.603 19.0527 20.4023 17.74 21.165 16.508C21.9423 15.276 22.6977 14.11 23.431 13.01C24.1643 11.8953 24.9123 10.81 25.675 9.754H28.733C28.9677 10.81 29.1877 11.9833 29.393 13.274C29.613 14.55 29.811 15.8627 29.987 17.212C30.1777 18.5467 30.3463 19.8887 30.493 21.238C30.6543 22.5727 30.801 23.8267 30.933 25H27.479ZM26.467 13.098C25.851 14.0807 25.2423 15.056 24.641 16.024C24.0543 16.992 23.4823 17.982 22.925 18.994H27.039C26.9657 18.0993 26.885 17.146 26.797 16.134C26.7237 15.122 26.6137 14.11 26.467 13.098ZM35.1981 22.448C35.5354 22.448 35.8727 22.426 36.2101 22.382C36.5474 22.3233 36.8481 22.228 37.1121 22.096C37.3761 21.964 37.5887 21.7807 37.7501 21.546C37.9261 21.2967 38.0141 20.9813 38.0141 20.6C38.0141 20.3067 37.9334 20.0573 37.7721 19.852C37.6107 19.632 37.4054 19.434 37.1561 19.258C36.9067 19.082 36.6281 18.9207 36.3201 18.774C36.0121 18.6273 35.7041 18.466 35.3961 18.29C35.0001 18.0553 34.6261 17.806 34.2741 17.542C33.9221 17.278 33.6214 16.9847 33.3721 16.662C33.1227 16.3247 32.9247 15.958 32.7781 15.562C32.6314 15.1513 32.5581 14.682 32.5581 14.154C32.5581 13.4793 32.6827 12.856 32.9321 12.284C33.1961 11.6973 33.5774 11.1913 34.0761 10.766C34.5894 10.3407 35.2274 10.0107 35.9901 9.776C36.7527 9.52667 37.6474 9.402 38.6741 9.402C39.1434 9.402 39.5981 9.446 40.0381 9.534C40.4781 9.60733 40.8887 9.70267 41.2701 9.82C41.6514 9.93733 41.9961 10.0767 42.3041 10.238C42.6267 10.3847 42.8981 10.5313 43.1181 10.678L41.6881 13.208C41.3214 12.9293 40.8741 12.6947 40.3461 12.504C39.8181 12.3133 39.2461 12.218 38.6301 12.218C38.2927 12.218 37.9701 12.2473 37.6621 12.306C37.3541 12.3647 37.0827 12.4673 36.8481 12.614C36.6134 12.746 36.4227 12.922 36.2761 13.142C36.1441 13.362 36.0781 13.6333 36.0781 13.956C36.0781 14.2493 36.1294 14.4987 36.2321 14.704C36.3494 14.8947 36.4961 15.0633 36.6721 15.21C36.8481 15.3567 37.0534 15.4887 37.2881 15.606C37.5227 15.7233 37.7721 15.848 38.0361 15.98C38.4907 16.2147 38.9307 16.464 39.3561 16.728C39.7814 16.992 40.1554 17.3 40.4781 17.652C40.8007 17.9893 41.0574 18.378 41.2481 18.818C41.4387 19.258 41.5341 19.7787 41.5341 20.38C41.5341 21.216 41.3801 21.942 41.0721 22.558C40.7641 23.174 40.3314 23.6873 39.7741 24.098C39.2167 24.5087 38.5494 24.8093 37.7721 25C37.0094 25.2053 36.1587 25.308 35.2201 25.308C34.6041 25.308 34.0247 25.2567 33.4821 25.154C32.9541 25.0513 32.4701 24.934 32.0301 24.802C31.6047 24.6553 31.2307 24.5013 30.9081 24.34C30.6001 24.1787 30.3507 24.032 30.1601 23.9L31.6121 21.282C31.7881 21.3993 32.0007 21.524 32.2501 21.656C32.4994 21.788 32.7781 21.9127 33.0861 22.03C33.4087 22.1473 33.7461 22.25 34.0981 22.338C34.4501 22.4113 34.8167 22.448 35.1981 22.448ZM55.6271 9.754L54.9231 12.636H50.4571L47.4871 25H44.0551L47.0251 12.636H42.5591L43.2631 9.754H55.6271Z" fill="black"/>
</svg>
