<svg width="212" height="26" viewBox="0 0 212 26" fill="none" xmlns="http://www.w3.org/2000/svg">
<path fill-rule="evenodd" clip-rule="evenodd" d="M6.676 0.0519981L0.699997 25H16.105H17.8H19.691C19.9843 24.428 20.2923 23.8707 20.615 23.328C20.9377 22.7707 21.2457 22.2207 21.539 21.678H27.259C27.303 22.2207 27.3397 22.7707 27.369 23.328C27.413 23.8707 27.4497 24.428 27.479 25H30.933C30.9075 24.7737 30.8815 24.5443 30.855 24.312C30.8725 24.3213 30.8902 24.3306 30.9081 24.34C31.2307 24.5013 31.6047 24.6553 32.0301 24.802C32.4701 24.934 32.9541 25.0513 33.4821 25.154C34.0247 25.2567 34.6041 25.308 35.2201 25.308C36.1587 25.308 37.0094 25.2053 37.7721 25C38.5494 24.8093 39.2167 24.5087 39.7741 24.098C40.3314 23.6873 40.7641 23.174 41.0721 22.558C41.3801 21.942 41.5341 21.216 41.5341 20.38C41.5341 19.7787 41.4387 19.258 41.2481 18.818C41.0574 18.378 40.8007 17.9893 40.4781 17.652C40.1554 17.3 39.7814 16.992 39.3561 16.728C38.9307 16.464 38.4907 16.2147 38.0361 15.98L37.2881 15.606C37.0534 15.4887 36.8481 15.3567 36.6721 15.21C36.4961 15.0633 36.3494 14.8947 36.2321 14.704C36.1294 14.4987 36.0781 14.2493 36.0781 13.956C36.0781 13.6333 36.1441 13.362 36.2761 13.142C36.4227 12.922 36.6134 12.746 36.8481 12.614C37.0827 12.4673 37.3541 12.3647 37.6621 12.306C37.9701 12.2473 38.2927 12.218 38.6301 12.218C39.2461 12.218 39.8181 12.3133 40.3461 12.504C40.8741 12.6947 41.3214 12.9293 41.6881 13.208L42.976 10.9293L42.5591 12.636H47.0251L44.0551 25H47.4871L50.4571 12.636H54.9231L55.6271 9.754H43.2631L43.0485 10.6327C42.8417 10.5011 42.5935 10.3696 42.3041 10.238C41.9961 10.0767 41.6514 9.93733 41.2701 9.82C40.8887 9.70267 40.4781 9.60733 40.0381 9.534C39.5981 9.446 39.1434 9.402 38.6741 9.402C37.6474 9.402 36.7527 9.52666 35.9901 9.776C35.2274 10.0107 34.5894 10.3407 34.0761 10.766C33.5774 11.1913 33.1961 11.6973 32.9321 12.284C32.6827 12.856 32.5581 13.4793 32.5581 14.154C32.5581 14.682 32.6314 15.1513 32.7781 15.562C32.9247 15.958 33.1227 16.3247 33.3721 16.662C33.6214 16.9847 33.9221 17.278 34.2741 17.542C34.6261 17.806 35.0001 18.0553 35.3961 18.29C35.7041 18.466 36.0121 18.6273 36.3201 18.774C36.6281 18.9207 36.9067 19.082 37.1561 19.258C37.4054 19.434 37.6107 19.632 37.7721 19.852C37.9334 20.0573 38.0141 20.3067 38.0141 20.6C38.0141 20.9813 37.9261 21.2967 37.7501 21.546C37.5887 21.7807 37.3761 21.964 37.1121 22.096C36.8481 22.228 36.5474 22.3233 36.2101 22.382C35.8727 22.426 35.5354 22.448 35.1981 22.448C34.8167 22.448 34.4501 22.4113 34.0981 22.338C33.7461 22.25 33.4087 22.1473 33.0861 22.03C32.7781 21.9127 32.4994 21.788 32.2501 21.656C32.0007 21.524 31.7881 21.3993 31.6121 21.282L30.6953 22.9349C30.6307 22.3846 30.5632 21.8189 30.493 21.238C30.3463 19.8887 30.1777 18.5467 29.987 17.212C29.811 15.8627 29.613 14.55 29.393 13.274C29.1877 11.9833 28.9677 10.81 28.733 9.754H25.675C24.9123 10.81 24.1643 11.8953 23.431 13.01C22.6977 14.11 21.9423 15.276 21.165 16.508C20.4188 17.7134 19.6374 18.9961 18.821 20.356H7.432L8.872 14.236H18.304L19.42 9.7H9.988L11.14 4.66H21.832L22.984 0.0519981H6.676ZM24.641 16.024C25.2423 15.056 25.851 14.0807 26.467 13.098C26.6137 14.11 26.7237 15.122 26.797 16.134C26.885 17.146 26.9657 18.0993 27.039 18.994H22.925C23.4823 17.982 24.0543 16.992 24.641 16.024ZM76.06 12.1C75.0067 11.3667 73.48 11 71.48 11C70.9333 11 70.3133 11.0267 69.62 11.08C68.9267 11.12 68.2733 11.2067 67.66 11.34V25H70.18V19.76H71.4H71.78C71.9133 19.76 72.0733 19.7533 72.26 19.74C72.5133 20.06 72.7867 20.4267 73.08 20.84C73.3733 21.24 73.6667 21.6733 73.96 22.14C74.2667 22.5933 74.5667 23.0667 74.86 23.56C75.1533 24.04 75.4267 24.52 75.68 25H78.5C78.26 24.48 77.9867 23.9533 77.68 23.42C77.3733 22.8733 77.0533 22.3467 76.72 21.84C76.3867 21.32 76.06 20.84 75.74 20.4C75.42 19.96 75.1333 19.5867 74.88 19.28C76.7333 18.6133 77.66 17.34 77.66 15.46C77.66 13.9533 77.1267 12.8333 76.06 12.1ZM70.18 13.24C70.6333 13.2 71.1267 13.18 71.66 13.18C72.1533 13.18 72.6067 13.22 73.02 13.3C73.4333 13.3667 73.7867 13.4867 74.08 13.66C74.3867 13.8333 74.62 14.0667 74.78 14.36C74.94 14.6533 75.02 15.0133 75.02 15.44C75.02 15.8933 74.94 16.2667 74.78 16.56C74.62 16.8533 74.38 17.0867 74.06 17.26C73.7533 17.4333 73.3667 17.5533 72.9 17.62C72.4333 17.6867 71.8933 17.72 71.28 17.72H70.18V13.24ZM88.8808 23.38C89.0808 23.9133 89.2741 24.4533 89.4608 25H92.1808C91.6608 23.52 91.1608 22.1533 90.6808 20.9C90.2141 19.6467 89.7541 18.46 89.3008 17.34C88.8608 16.22 88.4208 15.1533 87.9808 14.14C87.5408 13.1267 87.0874 12.1267 86.6208 11.14H84.2408C83.7741 12.1267 83.3208 13.1267 82.8808 14.14C82.4408 15.1533 81.9941 16.22 81.5408 17.34C81.1008 18.46 80.6474 19.6467 80.1808 20.9C79.7141 22.1533 79.2208 23.52 78.7008 25H81.3208L81.8808 23.4C82.0808 22.8533 82.2741 22.3 82.4608 21.74H88.3008C88.4874 22.3 88.6808 22.8467 88.8808 23.38ZM84.3208 16.4C84.7208 15.3867 85.0741 14.5267 85.3808 13.82C85.6741 14.5 86.0208 15.3533 86.4208 16.38C86.8208 17.4067 87.2341 18.5133 87.6608 19.7H83.1008C83.5275 18.5133 83.9341 17.4133 84.3208 16.4ZM95.7527 11.14H93.2327V25H95.7527V11.14ZM106.192 22.56C106.753 23.4267 107.259 24.24 107.713 25H109.853V11.14H107.353V20.34C106.899 19.62 106.379 18.8467 105.793 18.02C105.219 17.18 104.619 16.3467 103.993 15.52C103.379 14.6933 102.766 13.9 102.152 13.14C101.539 12.3667 100.966 11.7 100.433 11.14H98.3725V25H100.853V15.08C101.412 15.7467 101.999 16.5 102.613 17.34C103.239 18.1667 103.853 19.0267 104.452 19.92C105.052 20.8 105.632 21.68 106.192 22.56ZM114.437 25.08C115.184 25.1333 115.924 25.16 116.657 25.16C118.804 25.16 120.397 24.8067 121.437 24.1C122.477 23.38 122.997 22.3067 122.997 20.88C122.997 20.04 122.797 19.3467 122.397 18.8C121.997 18.2533 121.377 17.84 120.537 17.56C121.097 17.28 121.531 16.9067 121.837 16.44C122.157 15.9733 122.317 15.4133 122.317 14.76C122.317 14.0533 122.171 13.46 121.877 12.98C121.584 12.5 121.171 12.1133 120.637 11.82C120.117 11.5267 119.497 11.32 118.777 11.2C118.057 11.0667 117.277 11 116.437 11C116.131 11 115.804 11.0067 115.457 11.02C115.124 11.0333 114.784 11.0533 114.437 11.08C114.091 11.1067 113.751 11.1467 113.417 11.2C113.084 11.24 112.771 11.2867 112.477 11.34V24.8C113.037 24.9467 113.691 25.04 114.437 25.08ZM114.957 22.98V18.76H117.177C118.191 18.76 118.984 18.9133 119.557 19.22C120.131 19.5267 120.417 20.0733 120.417 20.86C120.417 21.3 120.317 21.66 120.117 21.94C119.931 22.22 119.671 22.4467 119.337 22.62C119.017 22.78 118.631 22.8933 118.177 22.96C117.737 23.0267 117.257 23.06 116.737 23.06C116.471 23.06 116.177 23.0533 115.857 23.04C115.537 23.0267 115.237 23.0067 114.957 22.98ZM116.737 16.78H114.957V13.14C115.171 13.1133 115.424 13.0933 115.717 13.08C116.024 13.0667 116.371 13.06 116.757 13.06C117.664 13.06 118.397 13.2 118.957 13.48C119.531 13.76 119.817 14.2333 119.817 14.9C119.817 15.6067 119.544 16.1 118.997 16.38C118.451 16.6467 117.697 16.78 116.737 16.78ZM127.262 20.14C127.075 19.5133 126.982 18.82 126.982 18.06C126.982 17.3 127.075 16.6133 127.262 16C127.448 15.3867 127.715 14.86 128.062 14.42C128.422 13.98 128.855 13.64 129.362 13.4C129.868 13.16 130.442 13.04 131.082 13.04C131.708 13.04 132.275 13.16 132.782 13.4C133.288 13.64 133.715 13.98 134.062 14.42C134.422 14.8467 134.695 15.3733 134.882 16C135.068 16.6133 135.162 17.3 135.162 18.06C135.162 18.82 135.068 19.5133 134.882 20.14C134.695 20.7533 134.422 21.28 134.062 21.72C133.715 22.1467 133.288 22.48 132.782 22.72C132.275 22.96 131.708 23.08 131.082 23.08C130.442 23.08 129.868 22.96 129.362 22.72C128.855 22.48 128.422 22.1467 128.062 21.72C127.715 21.28 127.448 20.7533 127.262 20.14ZM137.262 21.2C137.622 20.2933 137.802 19.2467 137.802 18.06C137.802 16.8733 137.622 15.8333 137.262 14.94C136.902 14.0333 136.415 13.2733 135.802 12.66C135.202 12.0467 134.495 11.5867 133.682 11.28C132.868 10.9733 132.008 10.82 131.102 10.82C130.195 10.82 129.335 10.9733 128.522 11.28C127.708 11.5867 126.988 12.0467 126.362 12.66C125.748 13.2733 125.262 14.0333 124.902 14.94C124.542 15.8333 124.362 16.8733 124.362 18.06C124.362 19.2467 124.542 20.2933 124.902 21.2C125.262 22.1067 125.742 22.8667 126.342 23.48C126.955 24.08 127.668 24.5333 128.482 24.84C129.308 25.1467 130.182 25.3 131.102 25.3C132.022 25.3 132.888 25.1467 133.702 24.84C134.515 24.5333 135.222 24.08 135.822 23.48C136.435 22.8667 136.915 22.1067 137.262 21.2ZM149.153 14.96C148.913 14.1733 148.686 13.42 148.473 12.7H146.313C146.113 13.42 145.893 14.1667 145.653 14.94C145.426 15.7133 145.186 16.4933 144.933 17.28C144.679 18.0533 144.419 18.82 144.153 19.58C143.899 20.3267 143.646 21.04 143.393 21.72C143.193 21 142.993 20.2133 142.793 19.36C142.593 18.5067 142.393 17.6267 142.193 16.72C142.006 15.8 141.819 14.8667 141.633 13.92C141.459 12.9733 141.293 12.0467 141.133 11.14H138.433C138.899 13.6467 139.413 16.06 139.973 18.38C140.546 20.6867 141.193 22.8933 141.913 25H144.313C144.819 23.64 145.326 22.2333 145.833 20.78C146.339 19.3267 146.839 17.7933 147.333 16.18C148.306 19.3667 149.313 22.3067 150.353 25H152.753C153.459 22.8933 154.099 20.6867 154.673 18.38C155.246 16.06 155.766 13.6467 156.233 11.14H153.633C153.473 12.06 153.299 12.9933 153.113 13.94C152.939 14.8867 152.759 15.82 152.573 16.74C152.386 17.6467 152.199 18.5267 152.013 19.38C151.826 20.22 151.633 21 151.433 21.72C151.193 21.0533 150.939 20.3467 150.673 19.6C150.419 18.84 150.159 18.0733 149.893 17.3C149.639 16.5133 149.393 15.7333 149.153 14.96ZM164.73 22.96C164.49 22.9467 164.297 22.9333 164.15 22.92V13.24C164.47 13.2 165.004 13.18 165.75 13.18C167.457 13.18 168.717 13.6 169.53 14.44C170.344 15.28 170.75 16.4867 170.75 18.06C170.75 19.6067 170.33 20.8133 169.49 21.68C168.664 22.5333 167.404 22.96 165.71 22.96H164.73ZM172.83 21.2C173.204 20.3067 173.39 19.26 173.39 18.06C173.39 16.8333 173.204 15.78 172.83 14.9C172.457 14.0067 171.924 13.2733 171.23 12.7C170.55 12.1133 169.73 11.6867 168.77 11.42C167.81 11.14 166.75 11 165.59 11C165.03 11 164.39 11.02 163.67 11.06C162.95 11.1 162.27 11.1933 161.63 11.34V24.8C162.27 24.9467 162.944 25.04 163.65 25.08C164.357 25.1333 164.99 25.16 165.55 25.16C166.724 25.16 167.79 25.02 168.75 24.74C169.724 24.4467 170.55 24.0067 171.23 23.42C171.924 22.82 172.457 22.08 172.83 21.2ZM183.73 23.38C183.93 23.9133 184.123 24.4533 184.31 25H187.03C186.51 23.52 186.01 22.1533 185.53 20.9C185.063 19.6467 184.603 18.46 184.15 17.34C183.71 16.22 183.27 15.1533 182.83 14.14C182.39 13.1267 181.937 12.1267 181.47 11.14H179.09C178.623 12.1267 178.17 13.1267 177.73 14.14C177.29 15.1533 176.843 16.22 176.39 17.34C175.95 18.46 175.497 19.6467 175.03 20.9C174.563 22.1533 174.07 23.52 173.55 25H176.17L176.73 23.4C176.93 22.8533 177.123 22.3 177.31 21.74H183.15C183.337 22.3 183.53 22.8467 183.73 23.38ZM179.17 16.4C179.57 15.3867 179.923 14.5267 180.23 13.82C180.523 14.5 180.87 15.3533 181.27 16.38C181.67 17.4067 182.083 18.5133 182.51 19.7H177.95C178.377 18.5133 178.783 17.4133 179.17 16.4ZM196.482 12.1C195.429 11.3667 193.902 11 191.902 11C191.355 11 190.735 11.0267 190.042 11.08C189.349 11.12 188.695 11.2067 188.082 11.34V25H190.602V19.76H191.822H192.202C192.335 19.76 192.495 19.7533 192.682 19.74C192.935 20.06 193.209 20.4267 193.502 20.84C193.795 21.24 194.089 21.6733 194.382 22.14C194.689 22.5933 194.989 23.0667 195.282 23.56C195.575 24.04 195.849 24.52 196.102 25H198.922C198.682 24.48 198.409 23.9533 198.102 23.42C197.795 22.8733 197.475 22.3467 197.142 21.84C196.809 21.32 196.482 20.84 196.162 20.4C195.842 19.96 195.555 19.5867 195.302 19.28C197.155 18.6133 198.082 17.34 198.082 15.46C198.082 13.9533 197.549 12.8333 196.482 12.1ZM190.602 13.24C191.055 13.2 191.549 13.18 192.082 13.18C192.575 13.18 193.029 13.22 193.442 13.3C193.855 13.3667 194.209 13.4867 194.502 13.66C194.809 13.8333 195.042 14.0667 195.202 14.36C195.362 14.6533 195.442 15.0133 195.442 15.44C195.442 15.8933 195.362 16.2667 195.202 16.56C195.042 16.8533 194.802 17.0867 194.482 17.26C194.175 17.4333 193.789 17.5533 193.322 17.62C192.855 17.6867 192.315 17.72 191.702 17.72H190.602V13.24ZM207.255 23.32C207.708 23.9067 208.108 24.4667 208.455 25H211.435C211.008 24.3067 210.535 23.6133 210.015 22.92C209.508 22.2133 208.975 21.54 208.415 20.9C207.855 20.2467 207.282 19.64 206.695 19.08C206.122 18.5067 205.555 18.0067 204.995 17.58C205.502 17.0867 206.015 16.5667 206.535 16.02C207.068 15.4733 207.595 14.9267 208.115 14.38C208.635 13.82 209.142 13.2667 209.635 12.72C210.128 12.1733 210.595 11.6467 211.035 11.14H208.015C207.668 11.5267 207.282 11.96 206.855 12.44C206.428 12.92 205.975 13.42 205.495 13.94C205.028 14.4467 204.555 14.9533 204.075 15.46C203.595 15.9533 203.135 16.42 202.695 16.86V11.14H200.175V25H202.695V18.78C203.215 19.14 203.742 19.5667 204.275 20.06C204.808 20.5533 205.322 21.0733 205.815 21.62C206.322 22.1667 206.802 22.7333 207.255 23.32Z" fill="black"/>
</svg>
